<svg version="1.1" id="Layer_1" xmlns="http://www.w3.org/2000/svg" xmlns:xlink="http://www.w3.org/1999/xlink" x="0px" y="0px"
	 width="100%" viewBox="0 0 225 225" enable-background="new 0 0 225 225" xml:space="preserve">
<path fill="#FEFFFE" opacity="1.000000" stroke="none" 
	d="
M124.000000,226.000000 
	C82.666672,226.000000 41.833340,226.000000 1.000005,226.000000 
	C1.000004,151.000000 1.000004,76.000015 1.000002,1.000015 
	C75.999992,1.000010 150.999985,1.000010 225.999969,1.000005 
	C225.999985,75.999985 225.999985,150.999969 226.000000,225.999969 
	C192.166672,226.000000 158.333328,226.000000 124.000000,226.000000 
M146.199493,213.839951 
	C146.980728,213.556183 147.761093,213.270020 148.543304,212.988983 
	C200.329285,194.382980 227.728683,141.331039 216.474747,90.960640 
	C210.361801,63.600239 195.587067,41.856113 172.450394,26.126799 
	C149.267960,10.366364 123.554077,5.302848 95.897278,9.514571 
	C37.523495,18.404039 -2.902699,78.156738 10.447104,135.902161 
	C24.643116,197.307922 84.524536,231.967010 146.199493,213.839951 
z"/>
<path fill="#43A047" opacity="1.000000" stroke="none" 
	d="
M145.811279,213.932800 
	C84.524536,231.967010 24.643116,197.307922 10.447104,135.902161 
	C-2.902699,78.156738 37.523495,18.404039 95.897278,9.514571 
	C123.554077,5.302848 149.267960,10.366364 172.450394,26.126799 
	C195.587067,41.856113 210.361801,63.600239 216.474747,90.960640 
	C227.728683,141.331039 200.329285,194.382980 148.543304,212.988983 
	C147.761093,213.270020 146.980728,213.556183 145.811279,213.932800 
M139.729279,62.377316 
	C138.271561,62.459408 136.813843,62.541496 134.919586,62.648170 
	C134.919586,85.961952 134.919586,108.967659 134.919586,133.322418 
	C133.418625,130.720032 132.610809,129.332886 131.815567,127.938583 
	C120.038200,107.289330 108.287148,86.624947 96.432945,66.019905 
	C95.610962,64.591141 94.073875,62.636166 92.785355,62.570370 
	C86.017395,62.224754 79.222397,62.408665 72.476341,62.408665 
	C72.476341,97.032906 72.476341,131.088196 72.476341,165.954666 
	C79.226395,165.468079 85.529282,165.013733 92.199356,164.532928 
	C92.199356,140.504333 92.199356,117.160271 92.199356,92.705917 
	C93.543312,94.951904 94.308289,96.186150 95.031006,97.444664 
	C107.199219,118.634010 119.313919,139.854477 131.608673,160.970123 
	C132.712112,162.865219 134.916870,165.314041 136.706940,165.396164 
	C142.708954,165.671494 148.754852,164.990265 154.722565,164.678436 
	C154.722565,130.185684 154.722565,96.574165 154.722565,62.377567 
	C149.919769,62.377567 145.300140,62.377567 139.729279,62.377316 
z"/>
<path fill="#FCFDFC" opacity="1.000000" stroke="none" 
	d="
M140.204895,62.377441 
	C145.300140,62.377567 149.919769,62.377567 154.722565,62.377567 
	C154.722565,96.574165 154.722565,130.185684 154.722565,164.678436 
	C148.754852,164.990265 142.708954,165.671494 136.706940,165.396164 
	C134.916870,165.314041 132.712112,162.865219 131.608673,160.970123 
	C119.313919,139.854477 107.199219,118.634010 95.031006,97.444664 
	C94.308289,96.186150 93.543312,94.951904 92.199356,92.705917 
	C92.199356,117.160271 92.199356,140.504333 92.199356,164.532928 
	C85.529282,165.013733 79.226395,165.468079 72.476341,165.954666 
	C72.476341,131.088196 72.476341,97.032906 72.476341,62.408665 
	C79.222397,62.408665 86.017395,62.224754 92.785355,62.570370 
	C94.073875,62.636166 95.610962,64.591141 96.432945,66.019905 
	C108.287148,86.624947 120.038200,107.289330 131.815567,127.938583 
	C132.610809,129.332886 133.418625,130.720032 134.919586,133.322418 
	C134.919586,108.967659 134.919586,85.961952 134.919586,62.648170 
	C136.813843,62.541496 138.271561,62.459408 140.204895,62.377441 
z"/>
</svg>